<svg xmlns="http://www.w3.org/2000/svg" xmlns:xlink="http://www.w3.org/1999/xlink" width="16" height="16" viewBox="0 0 16 16">
  <defs>
    <clipPath id="clip-path">
      <rect id="Rectangle_100" data-name="Rectangle 100" width="16" height="16" transform="translate(265.001 15)" fill="#fff"/>
    </clipPath>
  </defs>
  <g id="Mask_Group_15" data-name="Mask Group 15" transform="translate(-265.001 -15)" clip-path="url(#clip-path)">
    <path id="eye-solid" d="M15.905,47.307A8.979,8.979,0,0,0,8,42.669,8.98,8.98,0,0,0,.1,47.307a.8.8,0,0,0,0,.763A8.978,8.978,0,0,0,8,52.709a8.98,8.98,0,0,0,7.9-4.638.8.8,0,0,0,0-.763ZM8,51.454a3.772,3.772,0,1,1,0-7.53,3.772,3.772,0,1,1,0,7.53Zm0-6.275a2.8,2.8,0,0,0-.7.1,1.2,1.2,0,0,1-.13,1.627,1.392,1.392,0,0,1-1.728.123,2.434,2.434,0,0,0,1.086,2.735,2.8,2.8,0,0,0,3.1-.092,2.419,2.419,0,0,0,.9-2.795A2.654,2.654,0,0,0,8,45.179Z" transform="translate(265.001 -25.002)" fill="#f24142"/>
  </g>
</svg>
