<svg xmlns="http://www.w3.org/2000/svg" width="20" height="20" viewBox="0 0 14.547 20.41">
  <g id="cool-icons" transform="translate(0)">
    <g id="Group_53" data-name="Group 53" transform="translate(14.547 20.41) rotate(180)">
      <path id="Path_11" data-name="Path 11" d="M82.112,19.6a1.76,1.76,0,0,0,2.967-1.9l-4.79-7.5,4.79-7.5a1.76,1.76,0,0,0-2.967-1.9l-5.4,8.444a1.761,1.761,0,0,0,0,1.9Z" transform="translate(-76.44 0)" fill="#494b74"/>
      <path id="Path_12" data-name="Path 12" d="M223.506,11.153l5.4,8.444a1.76,1.76,0,0,0,2.967-1.9l-4.79-7.5,4.79-7.5A1.76,1.76,0,1,0,228.9.813l-5.4,8.444A1.76,1.76,0,0,0,223.506,11.153Z" transform="translate(-217.599 0)" fill="#2f2f51"/>
    </g>
  </g>
</svg>
